PathFileType	4	(X/Y/Z)	D:\Share\Shared_Data\Ergonomics\Sit To Stand Pertubation\S3\Perturbed.trc
DataRate	CameraRate	NumFrames	NumMarkers	Units	OrigDataRate	OrigDataStartFrame	OrigNumFrames	
100	100	12	18	m	100	6182	251
Frame#	Time	R_ASIS			R_Pelvis			V_Sacral			L_Pelvis			L_ASIS			Clavical			R_Acromium			L_Acromium			Sternum			Torso			R_Thigh_Med			R_Thigh_Lat			R_Thigh			R_Shank_Med			R_Shank_Lat			R_Shank			R_Heel			R_Toe			
		X1	Y1	Z1	X2	Y2	Z2	X3	Y3	Z3	X4	Y4	Z4	X5	Y5	Z5	X6	Y6	Z6	X7	Y7	Z7	X8	Y8	Z8	X9	Y9	Z9	X10	Y10	Z10	X11	Y11	Z11	X12	Y12	Z12	X13	Y13	Z13	X14	Y14	Z14	X15	Y15	Z15	X16	Y16	Z16	X17	Y17	Z17	X18	Y18	Z18	

6182	61.81	0.014523658	0.64501392	0.14970621	-0.095119179	0.6271087	0.20371735	-0.20471593	0.62107587	0.017178482	-0.092137726	0.64611395	-0.18471814	0.015844908	0.64020166	-0.13237746	-0.031243134	1.0427015	2.1555601e-05	-0.090226532	1.100078	0.17314496	-0.076683144	1.0971053	-0.15412637	-0.0015341414	0.97073993	0.0087847233	-0.024041985	1.0299912	-0.061548641	0.36164453	0.4695827	0.0632281	0.35031702	0.45212537	0.18230914	0.17952596	0.57909491	0.10714514	0.30392343	0.10697634	0.094912926	0.29173071	0.09434491	0.17622981	0.30400992	0.27438531	0.19573756	0.23166423	0.058016609	0.1385298	0.44783829	0.056482712	0.11566994
6183	61.82	0.014492725	0.64502234	0.14970132	-0.095151604	0.62711536	0.20371744	-0.20472763	0.62107208	0.017168526	-0.092146713	0.64611786	-0.1847182	0.015829671	0.64020471	-0.13237151	-0.031339434	1.0427106	1.2553362e-05	-0.090398483	1.1000809	0.17310257	-0.076751991	1.0970845	-0.15416586	-0.0015999477	0.97075537	0.0087903042	-0.024132051	1.0299902	-0.061556969	0.36162466	0.46958771	0.063225643	0.3502951	0.45212799	0.18230937	0.17950465	0.57910065	0.10715199	0.30392188	0.10697598	0.094911964	0.29172632	0.094353142	0.17624046	0.30398517	0.27438669	0.19573363	0.23166566	0.058016502	0.13852994	0.44783713	0.056483501	0.11566975
6184	61.83	0.014465597	0.64503046	0.14970023	-0.09517894	0.62711969	0.20371922	-0.20473717	0.62106689	0.017164429	-0.092158264	0.64612012	-0.1847133	0.015814113	0.64021106	-0.13236464	-0.03143672	1.042718	2.2960328e-06	-0.090568405	1.1000814	0.1730636	-0.076835144	1.0970616	-0.15421327	-0.0016667324	0.97077209	0.0087954082	-0.024222933	1.0299875	-0.061566723	0.36160742	0.46959305	0.063219444	0.35027609	0.45212933	0.18230788	0.17948732	0.57910583	0.107158	0.3039209	0.10697514	0.094910713	0.29171951	0.094366959	0.17624928	0.30396341	0.27438641	0.19572998	0.23166725	0.058016758	0.13852979	0.44783636	0.05648394	0.11566941
6185	61.84	0.014443147	0.64503754	0.14970137	-0.09519989	0.62712183	0.20372192	-0.20474355	0.6210611	0.017164909	-0.092170616	0.64612115	-0.1847045	0.015799583	0.64022034	-0.13235762	-0.031535856	1.0427247	-1.0357158e-05	-0.090737129	1.1000807	0.17302803	-0.076932121	1.0970375	-0.15426611	-0.0017348627	0.97079028	0.0087996311	-0.024314886	1.0299827	-0.06157856	0.36159396	0.4695983	0.063212135	0.35026056	0.45212985	0.1823053	0.17947409	0.57911035	0.10716344	0.30392014	0.10697417	0.094909401	0.29171085	0.094388145	0.17625563	0.30394647	0.27438596	0.19572672	0.2316683	0.058017357	0.13852979	0.44783588	0.056484085	0.11566908
6186	61.85	0.01442624	0.64504333	0.14970367	-0.095213531	0.6271225	0.20372479	-0.20474585	0.62105591	0.017168612	-0.092181839	0.64612134	-0.18469321	0.015787953	0.64023157	-0.13235103	-0.031637543	1.0427313	-2.6116075e-05	-0.090905899	1.1000802	0.17299539	-0.077041466	1.0970132	-0.15432043	-0.0018049426	0.97081055	0.0088026075	-0.024408356	1.0299756	-0.061592766	0.3615845	0.46960306	0.063205845	0.35024899	0.4521301	0.18230228	0.17946472	0.57911371	0.10716848	0.30391946	0.1069734	0.094908226	0.29169983	0.094419197	0.17625917	0.30393594	0.27438715	0.19572377	0.23166858	0.058018364	0.13853029	0.44783542	0.056483997	0.11566893
6187	61.86	0.014415749	0.64504755	0.14970639	-0.095219345	0.6271228	0.20372733	-0.20474318	0.62105261	0.017174162	-0.092189995	0.64612152	-0.18468095	0.01578177	0.64024194	-0.13234541	-0.031742342	1.0427389	-4.5040932e-05	-0.091075722	1.1000811	0.17296484	-0.077160744	1.0969906	-0.15437123	-0.0018776675	0.97083392	0.0088040009	-0.024504084	1.0299668	-0.061609432	0.3615787	0.46960736	0.063201256	0.35024164	0.45213068	0.18229967	0.17945897	0.57911603	0.10717316	0.30391882	0.10697302	0.094907341	0.29168649	0.094459435	0.17625917	0.3039325	0.27439099	0.19572128	0.23166805	0.058019901	0.13853111	0.44783478	0.056483704	0.11566911
6188	61.87	0.014412556	0.64504974	0.14970926	-0.095217056	0.62712366	0.20372931	-0.20473488	0.6210528	0.017180365	-0.092193359	0.64612231	-0.18466904	0.015783582	0.64024872	-0.13234102	-0.031850933	1.042749	-6.6833235e-05	-0.091247169	1.1000844	0.17293532	-0.077287132	1.0969707	-0.15441345	-0.0019533995	0.97086133	0.0088033524	-0.024603104	1.029958	-0.061628628	0.36157562	0.46961172	0.063198044	0.35023843	0.45213168	0.18229823	0.17945647	0.57911719	0.10717743	0.30391821	0.10697318	0.094906868	0.29167371	0.094501282	0.17625507	0.30393478	0.27439731	0.19571945	0.23166701	0.058022205	0.13853159	0.44783401	0.056483257	0.11566972
6189	61.88	0.01441748	0.6450498	0.14971231	-0.095206772	0.62712555	0.2037307	-0.20472043	0.62105804	0.017186337	-0.092190361	0.64612457	-0.18465845	0.015795078	0.64025012	-0.13233778	-0.031964111	1.0427627	-9.1342092e-05	-0.091420578	1.1000902	0.17290549	-0.077417458	1.0969548	-0.15444194	-0.0020319464	0.97089349	0.0088001547	-0.024706665	1.0299515	-0.061650341	0.36157471	0.46961658	0.063195728	0.35023895	0.45213309	0.18229848	0.17945686	0.57911713	0.10718108	0.30391794	0.10697387	0.094906799	0.29166608	0.094533287	0.17624741	0.3039404	0.27440475	0.19571877	0.23166585	0.058025421	0.13853079	0.44783313	0.056482773	0.11567065
6190	61.89	0.014431122	0.64504761	0.14971602	-0.095188889	0.62712915	0.20373146	-0.20469945	0.62106976	0.017191612	-0.092179741	0.64612915	-0.18464998	0.015816958	0.64024567	-0.13233546	-0.032082561	1.0427803	-0.00011878687	-0.09159584	1.1000995	0.17287424	-0.077548386	1.0969438	-0.15445169	-0.0021126459	0.97093121	0.0087941198	-0.024816061	1.0299497	-0.061674442	0.36157571	0.46962161	0.063194252	0.35024246	0.45213467	0.18230087	0.1794597	0.57911584	0.10718383	0.30391821	0.10697503	0.094907089	0.29166702	0.094546242	0.17623764	0.30394696	0.27441193	0.19571965	0.23166495	0.058029469	0.13852815	0.44783234	0.056482365	0.11567161
6191	61.9	0.014453703	0.64504309	0.14972112	-0.095163826	0.6271347	0.20373148	-0.20467163	0.62108893	0.017196072	-0.092160477	0.64613678	-0.18464398	0.015849298	0.64023627	-0.132334	-0.032206528	1.0428016	-0.00014960454	-0.091772568	1.100111	0.17284116	-0.077677391	1.0969391	-0.15443932	-0.0021945515	0.97097546	0.0087852983	-0.024932333	1.0299545	-0.061700924	0.36157907	0.46962607	0.063194351	0.35024847	0.45213638	0.18230568	0.17946463	0.57911328	0.1071852	0.30391925	0.10697643	0.094907707	0.29167633	0.094538712	0.17622708	0.30395288	0.27441763	0.19572223	0.23166479	0.058034077	0.13852385	0.447832	0.056482048	0.1156724
6192	61.91	0.014484987	0.6450365	0.1497283	-0.095131973	0.6271427	0.20373056	-0.20463654	0.62111597	0.017199715	-0.092131874	0.64614819	-0.18464052	0.015891731	0.64022369	-0.13233342	-0.032335419	1.0428265	-0.00018427907	-0.091950584	1.1001245	0.17280627	-0.077804276	1.0969412	-0.15440486	-0.0022765884	0.97102716	0.0087738752	-0.025056013	1.0299672	-0.061730103	0.36158542	0.46962927	0.063197388	0.35025662	0.45213815	0.18231306	0.17947137	0.57910944	0.10718485	0.30392117	0.10697794	0.094908592	0.29169098	0.094517418	0.17621623	0.30395761	0.27442151	0.19572639	0.23166571	0.05803899	0.13851854	0.44783215	0.056481678	0.11567294
6193	61.92	0.014524315	0.6450285	0.14973807	-0.095093575	0.62715375	0.20372856	-0.20459338	0.62115131	0.017202553	-0.092093353	0.64616425	-0.18463924	0.015943395	0.640211	-0.13233394	-0.03246767	1.0428558	-0.00022311249	-0.092130302	1.1001383	0.17276985	-0.077931908	1.0969493	-0.15435262	-0.0023577223	0.97108673	0.0087597561	-0.025186987	1.0299886	-0.061762535	0.36159525	0.46963116	0.063204678	0.35026639	0.45213974	0.18232298	0.17947995	0.57910419	0.10718275	0.30392386	0.10697945	0.094909683	0.29170782	0.094490288	0.17620554	0.30396194	0.27442346	0.19573199	0.23166774	0.058044037	0.13851312	0.44783295	0.056480991	0.11567335
